<svg width="72" height="56" viewBox="0 0 72 56" fill="none" xmlns="http://www.w3.org/2000/svg">
<rect width="72" height="56" rx="8" fill="#F2F6FF"/>
<mask id="mask0_1_7386" style="mask-type:alpha" maskUnits="userSpaceOnUse" x="24" y="16" width="24" height="24">
<path fill-rule="evenodd" clip-rule="evenodd" d="M31.2197 22C30.3557 22 29.5457 22.334 28.9397 22.941C27.6817 24.201 27.6817 26.252 28.9407 27.514L35.9997 34.585L43.0597 27.514C44.3187 26.252 44.3187 24.201 43.0597 22.941C41.8477 21.726 39.7117 21.728 38.4997 22.941L36.7077 24.736C36.3317 25.113 35.6677 25.113 35.2917 24.736L33.4997 22.94C32.8937 22.334 32.0847 22 31.2197 22ZM35.9997 37C35.7347 37 35.4797 36.895 35.2927 36.706L27.5247 28.926C25.4887 26.886 25.4887 23.567 27.5247 21.527C28.5087 20.543 29.8207 20 31.2197 20C32.6187 20 33.9317 20.543 34.9147 21.527L35.9997 22.614L37.0847 21.528C38.0687 20.543 39.3807 20 40.7807 20C42.1787 20 43.4917 20.543 44.4747 21.527C46.5117 23.567 46.5117 26.886 44.4757 28.926L36.7077 36.707C36.5197 36.895 36.2657 37 35.9997 37Z" fill="#071435"/>
</mask>
<g mask="url(#mask0_1_7386)">
<rect width="24" height="24" transform="translate(24 16)" fill="#1551E5"/>
</g>
</svg>
