<svg width="53" height="22" viewBox="0 0 53 22" fill="none" xmlns="http://www.w3.org/2000/svg">
<rect width="53" height="22" rx="4" fill="#FF3D71"/>
<path d="M8.8 12.708V10.372H13.728V12.708H8.8ZM16.8949 16.5V7.716L14.9429 8.196L14.4309 6.18L17.6469 5.22H19.3269V16.5H16.8949ZM25.6769 16.692C24.0555 16.692 22.6582 16.132 21.4849 15.012L22.9729 13.236C23.8689 14.0467 24.7595 14.452 25.6449 14.452C26.2315 14.452 26.6902 14.3187 27.0209 14.052C27.3515 13.7853 27.5169 13.4013 27.5169 12.9V12.868C27.5169 12.3987 27.3355 12.0307 26.9729 11.764C26.6102 11.4867 26.1302 11.348 25.5329 11.348C24.8929 11.348 24.2689 11.4867 23.6609 11.764L22.2369 10.82L22.5569 5.3H29.4369V7.46H24.6689L24.5409 9.396C25.0529 9.268 25.5435 9.204 26.0129 9.204C27.1755 9.204 28.1195 9.50267 28.8449 10.1C29.5702 10.6973 29.9329 11.5933 29.9329 12.788V12.82C29.9329 14.004 29.5435 14.948 28.7649 15.652C27.9969 16.3453 26.9675 16.692 25.6769 16.692ZM34.299 10.9C33.5097 10.9 32.859 10.628 32.347 10.084C31.8457 9.54 31.595 8.868 31.595 8.068V8.036C31.595 7.236 31.851 6.55867 32.363 6.004C32.875 5.44933 33.531 5.172 34.331 5.172C35.1203 5.172 35.7657 5.444 36.267 5.988C36.779 6.532 37.035 7.204 37.035 8.004V8.036C37.035 8.836 36.779 9.51333 36.267 10.068C35.755 10.6227 35.099 10.9 34.299 10.9ZM34.299 6.628C33.9683 6.628 33.7123 6.76133 33.531 7.028C33.3603 7.284 33.275 7.60933 33.275 8.004V8.036C33.275 8.42 33.371 8.75067 33.563 9.028C33.7657 9.30533 34.0217 9.444 34.331 9.444C34.6617 9.444 34.9123 9.31067 35.083 9.044C35.2643 8.77733 35.355 8.452 35.355 8.068V8.036C35.355 7.652 35.2537 7.32133 35.051 7.044C34.859 6.76667 34.6083 6.628 34.299 6.628ZM37.195 10.468L40.891 5.3H42.795L38.315 11.332L34.619 16.5H32.715L37.195 10.468ZM41.179 16.628C40.3897 16.628 39.739 16.356 39.227 15.812C38.7257 15.268 38.475 14.596 38.475 13.796V13.764C38.475 12.964 38.731 12.2867 39.243 11.732C39.755 11.1773 40.411 10.9 41.211 10.9C42.0003 10.9 42.6457 11.172 43.147 11.716C43.659 12.26 43.915 12.932 43.915 13.732V13.764C43.915 14.564 43.659 15.2413 43.147 15.796C42.635 16.3507 41.979 16.628 41.179 16.628ZM41.211 15.172C41.5417 15.172 41.7923 15.0387 41.963 14.772C42.1443 14.5053 42.235 14.18 42.235 13.796V13.764C42.235 13.38 42.1337 13.0493 41.931 12.772C41.739 12.4947 41.4883 12.356 41.179 12.356C40.8483 12.356 40.5923 12.4893 40.411 12.756C40.2403 13.012 40.155 13.3373 40.155 13.732V13.764C40.155 14.148 40.251 14.4787 40.443 14.756C40.6457 15.0333 40.9017 15.172 41.211 15.172Z" fill="white"/>
</svg>
